HIERARCHY
ROOT Hips
{
  OFFSET 265.287 66.7526 -254.649
  CHANNELS 6 Xposition Yposition Zposition Zrotation Xrotation Yrotation
  JOINT LeftUpLeg
  {
    OFFSET 8.64259 1.95398 -2.38835
    CHANNELS 3 Zrotation Xrotation Yrotation
    JOINT LeftLeg
    {
      OFFSET 43.7702 0 0
      CHANNELS 3 Zrotation Xrotation Yrotation
      JOINT LeftFoot
      {
        OFFSET 40.6238 0 0
        CHANNELS 3 Zrotation Xrotation Yrotation
        JOINT LeftToeBase
        {
          OFFSET 12.7242 0 0
          CHANNELS 3 Zrotation Xrotation Yrotation
          End Site
          {
            OFFSET 0 0 0
          }
        }
      }
    }
  }
  JOINT RightUpLeg
  {
    OFFSET -8.2249 1.95398 -2.59336
    CHANNELS 3 Zrotation Xrotation Yrotation
    JOINT RightLeg
    {
      OFFSET 43.5653 0 0
      CHANNELS 3 Zrotation Xrotation Yrotation
      JOINT RightFoot
      {
        OFFSET 40.6238 0 0
        CHANNELS 3 Zrotation Xrotation Yrotation
        JOINT RightToeBase
        {
          OFFSET 12.7242 0 0
          CHANNELS 3 Zrotation Xrotation Yrotation
          End Site
          {
            OFFSET 0 0 0
          }
        }
      }
    }
  }
  JOINT Spine
  {
    OFFSET 0.165834 0.87714 6.61349
    CHANNELS 3 Zrotation Xrotation Yrotation
    JOINT Spine1
    {
      OFFSET 7.38963 1.71661e-005 0
      CHANNELS 3 Zrotation Xrotation Yrotation
      JOINT Spine2
      {
        OFFSET 11.9445 1.14441e-005 0
        CHANNELS 3 Zrotation Xrotation Yrotation
        JOINT Spine3
        {
          OFFSET 14.7254 4.19617e-005 0
          CHANNELS 3 Zrotation Xrotation Yrotation
          JOINT Spine4
          {
            OFFSET 10.9679 0 0
            CHANNELS 3 Zrotation Xrotation Yrotation
            JOINT RightShoulder
            {
              OFFSET 2.46616 -1.6653 3.69651
              CHANNELS 3 Zrotation Xrotation Yrotation
              JOINT RightArm
              {
                OFFSET 13.0012 0 0
                CHANNELS 3 Zrotation Xrotation Yrotation
                JOINT RightForeArm
                {
                  OFFSET 28.7848 1.52588e-005 0
                  CHANNELS 3 Zrotation Xrotation Yrotation
                  JOINT RightHand
                  {
                    OFFSET 26.5688 1.52588e-005 0
                    CHANNELS 3 Zrotation Xrotation Yrotation
                    End Site
                    {
                      OFFSET 0 0 0
                    }
                  }
                }
              }
            }
            JOINT LeftShoulder
            {
              OFFSET 2.38034 -1.29275 -3.7523
              CHANNELS 3 Zrotation Xrotation Yrotation
              JOINT LeftArm
              {
                OFFSET 16.3182 6.10351e-005 0
                CHANNELS 3 Zrotation Xrotation Yrotation
                JOINT LeftForeArm
                {
                  OFFSET 27.0901 0 0
                  CHANNELS 3 Zrotation Xrotation Yrotation
                  JOINT LeftHand
                  {
                    OFFSET 24.5451 1.52588e-005 0
                    CHANNELS 3 Zrotation Xrotation Yrotation
                    End Site
                    {
                      OFFSET 0 0 0
                    }
                  }
                }
              }
            }
            JOINT Neck
            {
              OFFSET 5.0226 -0.0266342 0
              CHANNELS 3 Zrotation Xrotation Yrotation
              JOINT Head
              {
                OFFSET 6.69364 2.86102e-005 0
                CHANNELS 3 Zrotation Xrotation Yrotation
                End Site
                {
                  OFFSET 0 0 0
                }
              }
            }
          }
        }
      }
    }
  }
}
MOTION
Frames:	11
Frame Time:	0.0416667
284.484 63.2005 281.346 96.2313 -53.3498 97.2973 -158.717 8.13593 105.208 -89.709 9.95799 -2.42166 134.508 21.4945 -8.22421 51.7788 -5.39086 16.6861 -163.921 -54.2944 98.3029 -2.06856 -59.255 0.0856132 4.87314 -21.7433 68.2093 122.023 30.2583 53.6699 0.741876 14.6549 -90.092 -2.43705 1.44309 -0.0591102 -14.1072 1.439 -0.123236 -36.6485 1.39485 0.375171 -16.6358 1.39483 0.375185 102.463 7.67566 -80.4263 94.765 -11.1661 -14.0958 -18.1188 12.1476 -124.03 2.96754 4.34394 96.1776 -80.789 -0.228266 86.1332 81.6871 16.5353 -73.7102 -156.273 -7.91744 -106.633 31.7004 -27.7366 -81.9184 162.134 -13.0542 9.15138 -111.034 -17.3846 -3.28638 
284.684 62.891 281.55 96.0463 -53.4099 97.2041 -158.691 8.08019 105.236 -90.1418 9.15208 -2.16696 134.246 20.595 -8.94663 53.8245 -5.61235 17.4909 -163.72 -54.3979 98.4743 -2.05392 -59.6474 0.0866125 4.8598 -21.3124 67.8975 121.835 30.653 54.2314 0.753162 14.6441 -90.0909 -2.41553 1.46603 -0.0576352 -14.0857 1.46204 -0.122203 -36.6271 1.41562 0.385469 -16.6145 1.41562 0.385455 102.489 7.57681 -80.2974 94.83 -10.8956 -13.7166 -18.0059 11.8243 -124.646 3.06335 4.45949 96.1632 -80.7946 -0.223351 86.1116 82.128 17.0094 -73.5818 -155.294 -7.68173 -106.592 32.7677 -27.3895 -79.3434 162.107 -12.575 9.12832 -110.92 -17.3906 -3.34499 
285.25 62.0197 282.112 95.5186 -53.5715 96.9362 -158.629 7.92046 105.34 -91.2836 7.26508 -1.54875 133.285 18.3312 -10.7462 59.4183 -6.15207 19.2469 -163.16 -54.686 98.9517 -2.01537 -60.7694 0.0896267 4.83972 -20.0924 67.027 121.315 31.6716 55.7168 0.78471 14.6129 -90.0882 -2.3531 1.52975 -0.0488919 -14.0232 1.52613 -0.1162 -36.5652 1.47371 0.41323 -16.5525 1.47371 0.413223 102.561 7.29283 -79.9404 94.9826 -10.1536 -12.6378 -17.7143 10.9459 -126.347 3.32627 4.77393 96.0964 -80.8119 -0.212287 86.0468 83.1862 18.2921 -73.2351 -152.655 -7.15866 -106.56 35.3673 -25.9723 -72.1972 162.02 -11.2151 9.0647 -110.582 -17.4207 -3.50424 
286.135 60.6797 282.946 94.6854 -53.8017 96.5038 -158.55 7.69158 105.587 -92.841 5.5716 -0.825569 131.239 15.8012 -12.6573 67.5755 -6.90983 20.706 -162.32 -55.1265 99.6659 -1.96073 -62.5612 0.0949803 4.85381 -18.1891 65.6938 120.565 32.9988 57.7254 0.832162 14.5621 -90.0849 -2.25176 1.62536 -0.0369808 -13.9217 1.62219 -0.1085 -36.4646 1.56132 0.453341 -16.4519 1.56133 0.453344 102.673 6.84458 -79.4052 95.134 -9.0805 -10.9453 -17.3385 9.70899 -128.891 3.71008 5.22488 95.9275 -80.842 -0.202457 85.9363 84.3948 20.1523 -72.7166 -149.105 -6.59718 -106.689 37.9237 -22.878 -61.9282 161.851 -9.10648 8.97088 -110.016 -17.5088 -3.7264 
287.285 58.9753 283.973 93.5794 -54.0657 95.9117 -158.432 7.406 105.955 -94.5114 5.74416 -0.185679 127.77 14.5746 -13.1112 77.3547 -7.98812 21.2109 -161.272 -55.6892 100.553 -1.88306 -64.9917 0.10353 4.94791 -15.7047 63.996 119.74 34.3519 59.8481 0.890759 14.4925 -90.0816 -2.11299 1.74325 -0.0247218 -13.7828 1.74047 -0.10145 -36.3268 1.67007 0.500485 -16.3141 1.67006 0.500483 102.818 6.25444 -78.7414 95.1921 -7.8434 -8.71951 -16.9841 8.3537 -132.038 4.1626 5.74065 95.6038 -80.8868 -0.203008 85.777 85.3969 22.3988 -72.0626 -145.573 -6.10098 -107.051 38.7396 -18.2547 -50.5551 161.58 -6.39366 8.86044 -109.214 -17.6991 -3.96343 
288.637 57.0192 285.131 92.2324 -54.3294 95.1659 -158.234 7.04378 106.357 -96.0243 9.35927 0.271515 122.603 16.0793 -10.1754 88.0371 -9.34182 21.2838 -160.077 -56.3338 101.575 -1.79109 -68.0415 0.105018 5.16626 -12.7515 62.0277 119.006 35.5538 61.7643 0.955949 14.4051 -90.0795 -1.93853 1.87408 -0.0148466 -13.6081 1.87161 -0.0973373 -36.1535 1.79186 0.549263 -16.1408 1.79186 0.549256 102.992 5.54511 -77.9938 95.0912 -6.61038 -6.03856 -16.7411 7.12464 -135.577 4.63297 6.24979 95.0826 -80.9475 -0.2241 85.5677 86.0103 24.8973 -71.3092 -142.555 -5.72133 -107.579 37.3571 -13.2074 -39.7109 161.184 -3.2268 8.75015 -108.178 -18.0301 -4.16748 
290.105 54.9265 286.364 90.6801 -54.5601 94.2795 -157.957 6.55887 106.727 -97.122 17.146 0.485821 115.035 20.4839 -2.26229 99.0968 -10.4386 22.0854 -158.784 -57.0065 102.714 -1.68307 -71.6938 0.111077 5.54566 -9.47142 59.8735 118.5 36.5184 63.2585 1.02359 14.3013 -90.0795 -1.73122 2.00909 -0.0104468 -13.4006 2.00668 -0.0989023 -35.9475 1.91929 0.594084 -15.9348 1.91931 0.594072 103.187 4.74153 -77.201 94.8076 -5.53675 -2.98723 -16.6677 6.25268 -139.327 5.07492 6.68727 94.3323 -81.0246 -0.277055 85.311 86.1653 27.5444 -70.4958 -139.991 -5.54863 -108.148 34.5427 -8.85648 -30.2538 160.647 0.239099 8.65906 -106.922 -18.5251 -4.29753 
291.598 52.8058 287.6 88.9668 -54.7261 93.2783 -157.697 5.89854 107.099 -97.5548 29.2286 0.42644 103.813 25.815 11.6171 109.809 -10.6929 23.9851 -157.452 -57.6409 103.939 -1.57888 -75.9305 0.12708 6.11639 -6.04794 57.6072 118.299 37.2161 64.2219 1.08992 14.1833 -90.0833 -1.49552 2.14011 -0.0152786 -13.1647 2.13736 -0.109521 -35.7131 2.04571 0.628882 -15.7005 2.04571 0.628882 103.4 3.87194 -76.395 94.3654 -4.75019 0.335533 -16.786 5.92704 -143.115 5.4499 7.00279 93.329 -81.1177 -0.374376 85.014 85.8448 30.2432 -69.6671 -137.621 -5.69898 -108.68 31.2628 -5.60959 -22.4831 159.957 3.84793 8.60652 -105.48 -19.185 -4.32545 
293.04 50.7644 288.757 87.1468 -54.7993 92.2037 -157.551 5.06197 107.55 -97.1354 41.2994 0.0985242 91.012 28.1714 26.329 119.205 -10.4283 25.9174 -156.143 -58.1869 105.207 -1.45117 -80.7153 0.171829 6.89178 -2.66933 55.3157 118.402 37.6541 64.6516 1.15171 14.0543 -90.0932 -1.23759 2.2601 -0.033784 -12.9066 2.2564 -0.133281 -35.4566 2.16571 0.64736 -15.4439 2.16571 0.64734 103.623 2.96495 -75.6004 93.8291 -4.33107 3.81918 -17.0852 6.26541 -146.783 5.7317 7.16728 92.0529 -81.2249 -0.529347 84.6892 85.0406 32.8927 -68.8698 -135.284 -6.29195 -109.167 28.1171 -3.35321 -16.302 159.111 7.45693 8.60946 -103.891 -19.9872 -4.23975 
294.397 48.9083 289.795 85.2829 -54.7569 91.1114 -157.515 4.13141 108.073 -95.8839 51.1784 -0.452277 80.0699 27.303 37.6222 126.805 -10.5296 26.8495 -154.9 -58.6029 106.489 -1.18457 -85.9225 0.352442 7.84013 0.484935 53.0704 118.743 37.8635 64.6326 1.20664 13.9181 -90.1113 -0.964857 2.36332 -0.0707943 -12.6337 2.35791 -0.174807 -35.1852 2.27529 0.643128 -15.1725 2.27528 0.643135 103.852 2.04755 -74.8359 93.2851 -4.30922 7.35082 -17.5332 7.313 -150.187 5.90569 7.1661 90.4876 -81.3435 -0.75578 84.3527 83.7248 35.384 -68.1477 -132.946 -7.46086 -109.627 25.3562 -1.83562 -11.4414 158.111 10.9446 8.67856 -102.197 -20.8937 -4.04111 
295.655 47.3207 290.72 83.4466 -54.5806 90.0714 -157.556 3.2132 108.611 -93.9578 58.4227 -1.15974 72.2692 24.913 44.5414 132.685 -11.4293 26.6864 -153.703 -58.8972 107.827 177.61 -88.7381 178.962 8.86927 3.26923 50.9873 119.198 37.8994 64.3271 1.25273 13.7789 -90.1406 -0.685881 2.44501 -0.131711 -12.3545 2.43685 -0.239268 -34.9074 2.37151 0.609644 -14.8948 2.3715 0.609624 104.081 1.14493 -74.117 92.823 -4.67215 10.8197 -18.1 9.05254 -153.193 5.96463 6.99679 88.62 -81.47 -1.06789 84.0247 81.8293 37.5949 -67.5421 -130.633 -9.3771 -110.063 23.0269 -0.819996 -7.60932 156.967 14.2065 8.81703 -100.431 -21.8606 -3.73395 
